<?xml version="1.0" encoding="UTF-8"?>
<svg version="1.1" viewBox="0 0 96 75.29" xml:space="preserve" xmlns="http://www.w3.org/2000/svg" xmlns:cc="http://creativecommons.org/ns#" xmlns:dc="http://purl.org/dc/elements/1.1/" xmlns:rdf="http://www.w3.org/1999/02/22-rdf-syntax-ns#"><title>RISC-V logo (square)</title><metadata><rdf:RDF><cc:Work rdf:about=""><dc:format>image/svg+xml</dc:format><dc:type rdf:resource="http://purl.org/dc/dcmitype/StillImage"/><dc:title>RISC-V logo (square)</dc:title></cc:Work></rdf:RDF></metadata><defs><clipPath id="cvfa"><path d="m12 344h72v56.47h-72z"/></clipPath></defs><g transform="matrix(1.333 0 0 -1.333 -16 534)"><g clip-path="url(#cvfa)"><path d="m49.92 387.3c0-5.937-3.726-11.54-10.94-12.77l10.16-11.88 1.014 1.346 18.28 25.65v10.87h-29.57c7.334-1.231 11.06-7.172 11.06-13.22z" style="fill:#f6b21a"/><path d="m55.11 360.5 13.32 18.6v-20.17h-14.33zm-25.95 19.49h7.108c5.081 0 7.677 3.699 7.677 7.283 0 3.588-2.486 7.287-7.677 7.287h-9.704v-35.52h17.72l-15.24 18.15v2.801z" style="fill:#2a3172"/><path d="m28.82 344h2.254v10.42h-2.254z" style="fill:#2a3172"/><path d="m35.81 348.2c-0.7886 0-1.576 0.3333-2.254 1.006-0.5671 0.5644-1.018 1.346-1.018 2.244 0 0.7829 0.3414 1.564 1.018 2.238 0.5628 0.563 1.35 1.011 2.254 1.011h11.85v-2.242h-11.85c-0.2257 0-0.4514-0.1092-0.6785-0.2241-0.2257-0.2255-0.2257-0.3347-0.2257-0.6737 0-0.3333 0.1157-0.4481 0.2257-0.6722 0.2271-0.2255 0.3428-0.2255 0.6785-0.2255h8.58c0.7886 0 1.576-0.3333 2.254-1.006 0.5671-0.5588 1.018-1.346 1.018-2.244 0-0.8922-0.3414-1.564-1.018-2.238-0.5628-0.563-1.35-1.006-2.254-1.006h-11.85v2.237h11.85c0.2257 0 0.4514 0.1148 0.6771 0.2255 0.2271 0.2241 0.2271 0.3389 0.2271 0.6722 0 0.2241-0.1157 0.4482-0.2271 0.6723-0.2257 0.2255-0.3414 0.2255-0.6771 0.2255z" style="fill:#2a3172"/><path d="m54.09 354.5h9.704v-2.242h-9.704c-0.7886 0-1.581-0.3347-2.144-0.7829-0.5614-0.563-0.7871-1.237-0.7871-2.129 0-0.7872 0.3357-1.57 0.7871-2.128 0.5629-0.563 1.24-0.7885 2.144-0.7885h9.704v-2.237h-9.704c-1.466 0-2.596 0.5574-3.726 1.564-1.014 1.013-1.581 2.242-1.581 3.699 0 1.455 0.5671 2.576 1.581 3.698 1.02 0.8977 2.144 1.346 3.726 1.346z" style="fill:#2a3172"/><path d="m27.12 344.1-3.047 4.141c0.7928 0.1149 1.471 0.339 2.033 1.011 0.5614 0.5588 1.014 1.34 1.014 2.238 0 0.7886-0.3372 1.57-1.014 2.244-0.5614 0.5575-1.356 1.006-2.26 1.006h-11.85v-10.42h2.26v4.141h6.993l3.047-4.141zm-12.75 8.179h9.592c0.2271 0 0.4528-0.1149 0.6785-0.2255 0.2257-0.2241 0.2257-0.339 0.2257-0.6723 0-0.2241-0.1157-0.4482-0.2257-0.6737-0.2257-0.2241-0.3414-0.2241-0.6785-0.2241h-9.592z" style="fill:#2a3172"/><path d="m75.2 344-6.095 10.42h2.596l4.855-8.294 4.848 8.294h2.596l-6.094-10.42z" style="fill:#f6b21a"/><path d="m65.27 348.3h4.397v2.018h-4.397z" style="fill:#f6b21a"/></g></g></svg>
